<mxfile host="Electron" modified="2023-09-01T08:04:38.344Z" agent="Mozilla/5.0 (Windows NT 10.0; Win64; x64) AppleWebKit/537.36 (KHTML, like Gecko) draw.io/21.6.8 Chrome/114.0.5735.289 Electron/25.5.0 Safari/537.36" etag="ZSfgVoeQ8rloDarQuc3Y" version="21.6.8" type="device">
  <diagram id="v57sjVzla4U02iYcy0hB" name="第 1 页">
    <mxGraphModel dx="2074" dy="1204" grid="1" gridSize="10" guides="1" tooltips="1" connect="1" arrows="1" fold="1" page="1" pageScale="1" pageWidth="827" pageHeight="1169" math="0" shadow="0">
      <root>
        <mxCell id="0" />
        <mxCell id="1" parent="0" />
        <mxCell id="VTFgFB9eV1MicFc4lQp3-1" value="Base1" style="swimlane;fontStyle=0;childLayout=stackLayout;horizontal=1;startSize=30;horizontalStack=0;resizeParent=1;resizeParentMax=0;resizeLast=0;collapsible=1;marginBottom=0;fillColor=#66B2FF;" parent="1" vertex="1">
          <mxGeometry x="120" y="360" width="160" height="100" as="geometry" />
        </mxCell>
        <mxCell id="n-MJkdgFGd2RKFo6iWyg-1" value="+ field1 变量1" style="text;strokeColor=none;fillColor=none;align=left;verticalAlign=middle;spacingLeft=4;spacingRight=4;overflow=hidden;points=[[0,0.5],[1,0.5]];portConstraint=eastwest;rotatable=0;" vertex="1" parent="VTFgFB9eV1MicFc4lQp3-1">
          <mxGeometry y="30" width="160" height="30" as="geometry" />
        </mxCell>
        <mxCell id="n-MJkdgFGd2RKFo6iWyg-3" value="" style="line;strokeWidth=2;html=1;" vertex="1" parent="VTFgFB9eV1MicFc4lQp3-1">
          <mxGeometry y="60" width="160" height="10" as="geometry" />
        </mxCell>
        <mxCell id="VTFgFB9eV1MicFc4lQp3-4" value="+ func1 函数1" style="text;strokeColor=none;fillColor=none;align=left;verticalAlign=middle;spacingLeft=4;spacingRight=4;overflow=hidden;points=[[0,0.5],[1,0.5]];portConstraint=eastwest;rotatable=0;" parent="VTFgFB9eV1MicFc4lQp3-1" vertex="1">
          <mxGeometry y="70" width="160" height="30" as="geometry" />
        </mxCell>
        <mxCell id="VTFgFB9eV1MicFc4lQp3-5" value="Member1" style="swimlane;fontStyle=0;childLayout=stackLayout;horizontal=1;startSize=30;horizontalStack=0;resizeParent=1;resizeParentMax=0;resizeLast=0;collapsible=1;marginBottom=0;fillColor=#66B2FF;" parent="1" vertex="1">
          <mxGeometry x="440" y="360" width="160" height="100" as="geometry" />
        </mxCell>
        <mxCell id="VTFgFB9eV1MicFc4lQp3-7" value="+ field2 变量2" style="text;strokeColor=none;fillColor=none;align=left;verticalAlign=middle;spacingLeft=4;spacingRight=4;overflow=hidden;points=[[0,0.5],[1,0.5]];portConstraint=eastwest;rotatable=0;" parent="VTFgFB9eV1MicFc4lQp3-5" vertex="1">
          <mxGeometry y="30" width="160" height="30" as="geometry" />
        </mxCell>
        <mxCell id="n-MJkdgFGd2RKFo6iWyg-4" value="" style="line;strokeWidth=2;html=1;" vertex="1" parent="VTFgFB9eV1MicFc4lQp3-5">
          <mxGeometry y="60" width="160" height="10" as="geometry" />
        </mxCell>
        <mxCell id="VTFgFB9eV1MicFc4lQp3-8" value="+ func2 函数2" style="text;strokeColor=none;fillColor=none;align=left;verticalAlign=middle;spacingLeft=4;spacingRight=4;overflow=hidden;points=[[0,0.5],[1,0.5]];portConstraint=eastwest;rotatable=0;" parent="VTFgFB9eV1MicFc4lQp3-5" vertex="1">
          <mxGeometry y="70" width="160" height="30" as="geometry" />
        </mxCell>
        <mxCell id="n-MJkdgFGd2RKFo6iWyg-6" value="代码层一个显示的方法&lt;br&gt;将Member中的&lt;br&gt;成员变量和成员函数&lt;br&gt;拷贝进目标Base定义之中" style="shape=card;whiteSpace=wrap;html=1;fillColor=#E6FFCC;verticalAlign=top;" vertex="1" parent="1">
          <mxGeometry x="280" y="200" width="200" height="90" as="geometry" />
        </mxCell>
        <mxCell id="n-MJkdgFGd2RKFo6iWyg-7" value="Base1" style="swimlane;fontStyle=0;childLayout=stackLayout;horizontal=1;startSize=30;horizontalStack=0;resizeParent=1;resizeParentMax=0;resizeLast=0;collapsible=1;marginBottom=0;fillColor=#66B2FF;" vertex="1" parent="1">
          <mxGeometry x="120" y="560" width="160" height="70" as="geometry" />
        </mxCell>
        <mxCell id="VTFgFB9eV1MicFc4lQp3-3" value="+ field3 变量3" style="text;strokeColor=none;fillColor=none;align=left;verticalAlign=middle;spacingLeft=4;spacingRight=4;overflow=hidden;points=[[0,0.5],[1,0.5]];portConstraint=eastwest;rotatable=0;" parent="n-MJkdgFGd2RKFo6iWyg-7" vertex="1">
          <mxGeometry y="30" width="160" height="30" as="geometry" />
        </mxCell>
        <mxCell id="n-MJkdgFGd2RKFo6iWyg-10" value="" style="line;strokeWidth=2;html=1;" vertex="1" parent="n-MJkdgFGd2RKFo6iWyg-7">
          <mxGeometry y="60" width="160" height="10" as="geometry" />
        </mxCell>
        <mxCell id="n-MJkdgFGd2RKFo6iWyg-12" value="Member1" style="swimlane;fontStyle=0;childLayout=stackLayout;horizontal=1;startSize=30;horizontalStack=0;resizeParent=1;resizeParentMax=0;resizeLast=0;collapsible=1;marginBottom=0;fillColor=#66B2FF;" vertex="1" parent="1">
          <mxGeometry x="440" y="560" width="160" height="100" as="geometry" />
        </mxCell>
        <mxCell id="n-MJkdgFGd2RKFo6iWyg-14" value="" style="line;strokeWidth=2;html=1;" vertex="1" parent="n-MJkdgFGd2RKFo6iWyg-12">
          <mxGeometry y="30" width="160" height="10" as="geometry" />
        </mxCell>
        <mxCell id="n-MJkdgFGd2RKFo6iWyg-15" value="+ func3 函数3" style="text;strokeColor=none;fillColor=none;align=left;verticalAlign=middle;spacingLeft=4;spacingRight=4;overflow=hidden;points=[[0,0.5],[1,0.5]];portConstraint=eastwest;rotatable=0;" vertex="1" parent="n-MJkdgFGd2RKFo6iWyg-12">
          <mxGeometry y="40" width="160" height="30" as="geometry" />
        </mxCell>
        <mxCell id="n-MJkdgFGd2RKFo6iWyg-17" value="+ func3 函数3" style="text;strokeColor=none;fillColor=none;align=left;verticalAlign=middle;spacingLeft=4;spacingRight=4;overflow=hidden;points=[[0,0.5],[1,0.5]];portConstraint=eastwest;rotatable=0;" vertex="1" parent="n-MJkdgFGd2RKFo6iWyg-12">
          <mxGeometry y="70" width="160" height="30" as="geometry" />
        </mxCell>
        <mxCell id="n-MJkdgFGd2RKFo6iWyg-23" value="" style="curved=1;endArrow=classic;html=1;rounded=0;entryX=1.038;entryY=-0.2;entryDx=0;entryDy=0;exitX=0;exitY=0;exitDx=0;exitDy=0;entryPerimeter=0;" edge="1" parent="1" source="VTFgFB9eV1MicFc4lQp3-5" target="n-MJkdgFGd2RKFo6iWyg-1">
          <mxGeometry width="50" height="50" relative="1" as="geometry">
            <mxPoint x="340" y="380" as="sourcePoint" />
            <mxPoint x="390" y="330" as="targetPoint" />
            <Array as="points">
              <mxPoint x="360" y="310" />
            </Array>
          </mxGeometry>
        </mxCell>
        <mxCell id="n-MJkdgFGd2RKFo6iWyg-24" value="" style="curved=1;endArrow=classic;html=1;rounded=0;entryX=1.019;entryY=-0.067;entryDx=0;entryDy=0;exitX=0;exitY=0;exitDx=0;exitDy=0;entryPerimeter=0;" edge="1" parent="1" source="n-MJkdgFGd2RKFo6iWyg-12" target="n-MJkdgFGd2RKFo6iWyg-1">
          <mxGeometry width="50" height="50" relative="1" as="geometry">
            <mxPoint x="620" y="520" as="sourcePoint" />
            <mxPoint x="300" y="520" as="targetPoint" />
            <Array as="points">
              <mxPoint x="390" y="420" />
            </Array>
          </mxGeometry>
        </mxCell>
        <mxCell id="n-MJkdgFGd2RKFo6iWyg-25" value="" style="curved=1;endArrow=classic;html=1;rounded=0;entryX=1;entryY=0.25;entryDx=0;entryDy=0;exitX=0;exitY=0;exitDx=0;exitDy=0;" edge="1" parent="1" source="VTFgFB9eV1MicFc4lQp3-5" target="n-MJkdgFGd2RKFo6iWyg-7">
          <mxGeometry width="50" height="50" relative="1" as="geometry">
            <mxPoint x="450" y="370" as="sourcePoint" />
            <mxPoint x="296" y="394" as="targetPoint" />
            <Array as="points">
              <mxPoint x="330" y="390" />
            </Array>
          </mxGeometry>
        </mxCell>
      </root>
    </mxGraphModel>
  </diagram>
</mxfile>
